<svg width="149" height="47" viewBox="0 0 149 47" fill="none" xmlns="http://www.w3.org/2000/svg">
<rect width="149" height="47" rx="23.5" fill="#00ADB5"/>
<g filter="url(#filter0_d_16_217)">
<path d="M32.594 23.664C32.594 22.416 32.864 21.306 33.404 20.334C33.944 19.35 34.694 18.588 35.654 18.048C36.626 17.496 37.724 17.22 38.948 17.22C40.448 17.22 41.732 17.616 42.8 18.408C43.868 19.2 44.582 20.28 44.942 21.648H41.558C41.306 21.12 40.946 20.718 40.478 20.442C40.022 20.166 39.5 20.028 38.912 20.028C37.964 20.028 37.196 20.358 36.608 21.018C36.02 21.678 35.726 22.56 35.726 23.664C35.726 24.768 36.02 25.65 36.608 26.31C37.196 26.97 37.964 27.3 38.912 27.3C39.5 27.3 40.022 27.162 40.478 26.886C40.946 26.61 41.306 26.208 41.558 25.68H44.942C44.582 27.048 43.868 28.128 42.8 28.92C41.732 29.7 40.448 30.09 38.948 30.09C37.724 30.09 36.626 29.82 35.654 29.28C34.694 28.728 33.944 27.966 33.404 26.994C32.864 26.022 32.594 24.912 32.594 23.664ZM51.3989 30.144C50.4149 30.144 49.5269 29.934 48.7349 29.514C47.9549 29.094 47.3369 28.494 46.8809 27.714C46.4369 26.934 46.2149 26.022 46.2149 24.978C46.2149 23.946 46.4429 23.04 46.8989 22.26C47.3549 21.468 47.9789 20.862 48.7709 20.442C49.5629 20.022 50.4509 19.812 51.4349 19.812C52.4189 19.812 53.3069 20.022 54.0989 20.442C54.8909 20.862 55.5149 21.468 55.9709 22.26C56.4269 23.04 56.6549 23.946 56.6549 24.978C56.6549 26.01 56.4209 26.922 55.9529 27.714C55.4969 28.494 54.8669 29.094 54.0629 29.514C53.2709 29.934 52.3829 30.144 51.3989 30.144ZM51.3989 27.48C51.9869 27.48 52.4849 27.264 52.8929 26.832C53.3129 26.4 53.5229 25.782 53.5229 24.978C53.5229 24.174 53.3189 23.556 52.9109 23.124C52.5149 22.692 52.0229 22.476 51.4349 22.476C50.8349 22.476 50.3369 22.692 49.9409 23.124C49.5449 23.544 49.3469 24.162 49.3469 24.978C49.3469 25.782 49.5389 26.4 49.9229 26.832C50.3189 27.264 50.8109 27.48 51.3989 27.48ZM64.4079 19.848C65.5839 19.848 66.5199 20.232 67.2159 21C67.9239 21.756 68.2779 22.8 68.2779 24.132V30H65.2179V24.546C65.2179 23.874 65.0439 23.352 64.6959 22.98C64.3479 22.608 63.8799 22.422 63.2919 22.422C62.7039 22.422 62.2359 22.608 61.8879 22.98C61.5399 23.352 61.3659 23.874 61.3659 24.546V30H58.2879V19.956H61.3659V21.288C61.6779 20.844 62.0979 20.496 62.6259 20.244C63.1539 19.98 63.7479 19.848 64.4079 19.848ZM76.0148 27.39V30H74.4488C73.3328 30 72.4628 29.73 71.8388 29.19C71.2148 28.638 70.9028 27.744 70.9028 26.508V22.512H69.6788V19.956H70.9028V17.508H73.9808V19.956H75.9968V22.512H73.9808V26.544C73.9808 26.844 74.0528 27.06 74.1968 27.192C74.3408 27.324 74.5808 27.39 74.9168 27.39H76.0148ZM77.1173 24.96C77.1173 23.928 77.3093 23.022 77.6933 22.242C78.0893 21.462 78.6233 20.862 79.2953 20.442C79.9673 20.022 80.7173 19.812 81.5453 19.812C82.2533 19.812 82.8713 19.956 83.3993 20.244C83.9393 20.532 84.3533 20.91 84.6413 21.378V19.956H87.7193V30H84.6413V28.578C84.3413 29.046 83.9213 29.424 83.3813 29.712C82.8533 30 82.2353 30.144 81.5273 30.144C80.7113 30.144 79.9673 29.934 79.2953 29.514C78.6233 29.082 78.0893 28.476 77.6933 27.696C77.3093 26.904 77.1173 25.992 77.1173 24.96ZM84.6413 24.978C84.6413 24.21 84.4253 23.604 83.9933 23.16C83.5733 22.716 83.0573 22.494 82.4453 22.494C81.8333 22.494 81.3113 22.716 80.8793 23.16C80.4593 23.592 80.2493 24.192 80.2493 24.96C80.2493 25.728 80.4593 26.34 80.8793 26.796C81.3113 27.24 81.8333 27.462 82.4453 27.462C83.0573 27.462 83.5733 27.24 83.9933 26.796C84.4253 26.352 84.6413 25.746 84.6413 24.978ZM95.5441 27.39V30H93.9781C92.8621 30 91.9921 29.73 91.3681 29.19C90.7441 28.638 90.4321 27.744 90.4321 26.508V22.512H89.2081V19.956H90.4321V17.508H93.5101V19.956H95.5261V22.512H93.5101V26.544C93.5101 26.844 93.5821 27.06 93.7261 27.192C93.8701 27.324 94.1101 27.39 94.4461 27.39H95.5441ZM96.6466 24.96C96.6466 23.928 96.8386 23.022 97.2226 22.242C97.6186 21.462 98.1526 20.862 98.8246 20.442C99.4966 20.022 100.247 19.812 101.075 19.812C101.783 19.812 102.401 19.956 102.929 20.244C103.469 20.532 103.883 20.91 104.171 21.378V19.956H107.249V30H104.171V28.578C103.871 29.046 103.451 29.424 102.911 29.712C102.383 30 101.765 30.144 101.057 30.144C100.241 30.144 99.4966 29.934 98.8246 29.514C98.1526 29.082 97.6186 28.476 97.2226 27.696C96.8386 26.904 96.6466 25.992 96.6466 24.96ZM104.171 24.978C104.171 24.21 103.955 23.604 103.523 23.16C103.103 22.716 102.587 22.494 101.975 22.494C101.363 22.494 100.841 22.716 100.409 23.16C99.9886 23.592 99.7786 24.192 99.7786 24.96C99.7786 25.728 99.9886 26.34 100.409 26.796C100.841 27.24 101.363 27.462 101.975 27.462C102.587 27.462 103.103 27.24 103.523 26.796C103.955 26.352 104.171 25.746 104.171 24.978ZM112.553 21.63C112.913 21.078 113.363 20.646 113.903 20.334C114.443 20.01 115.043 19.848 115.703 19.848V23.106H114.857C114.089 23.106 113.513 23.274 113.129 23.61C112.745 23.934 112.553 24.51 112.553 25.338V30H109.475V19.956H112.553V21.63Z" fill="#EEEEEE"/>
</g>
<defs>
<filter id="filter0_d_16_217" x="28.594" y="17.22" width="91.1094" height="20.924" filterUnits="userSpaceOnUse" color-interpolation-filters="sRGB">
<feFlood flood-opacity="0" result="BackgroundImageFix"/>
<feColorMatrix in="SourceAlpha" type="matrix" values="0 0 0 0 0 0 0 0 0 0 0 0 0 0 0 0 0 0 127 0" result="hardAlpha"/>
<feOffset dy="4"/>
<feGaussianBlur stdDeviation="2"/>
<feComposite in2="hardAlpha" operator="out"/>
<feColorMatrix type="matrix" values="0 0 0 0 0 0 0 0 0 0 0 0 0 0 0 0 0 0 0.5 0"/>
<feBlend mode="normal" in2="BackgroundImageFix" result="effect1_dropShadow_16_217"/>
<feBlend mode="normal" in="SourceGraphic" in2="effect1_dropShadow_16_217" result="shape"/>
</filter>
</defs>
</svg>
